<svg width="331" height="71" viewBox="0 0 331 71" fill="none" xmlns="http://www.w3.org/2000/svg">
<path d="M7.99919 40.5787C6.38265 33.0347 5.57439 29.2628 7.60062 26.7564C9.62686 24.25 13.4844 24.25 21.1995 24.25H32.8008C40.5161 24.25 44.3735 24.25 46.3998 26.7564C48.426 29.2628 47.6178 33.0347 46.0011 40.5787L45.037 45.0787C43.9413 50.1918 43.3934 52.7485 41.5369 54.2493C39.6804 55.75 37.0659 55.75 31.8365 55.75H22.1638C16.9345 55.75 14.3198 55.75 12.4634 54.2493C10.607 52.7485 10.0592 50.1918 8.96349 45.0787L7.99919 40.5787Z" stroke="#222222" stroke-width="3.375"/>
<path opacity="0.5" d="M18.0005 35.5H36.0005" stroke="#222222" stroke-width="3.375" stroke-linecap="round" stroke-linejoin="round"/>
<path opacity="0.5" d="M22.5005 42.25H31.5005" stroke="#222222" stroke-width="3.375" stroke-linecap="round" stroke-linejoin="round"/>
<path opacity="0.6" d="M40.5 28.75L33.75 15.25" stroke="#222222" stroke-width="3.375" stroke-linecap="round" stroke-linejoin="round"/>
<path opacity="0.6" d="M13.5005 28.75L20.2505 15.25" stroke="#222222" stroke-width="3.375" stroke-linecap="round" stroke-linejoin="round"/>
<path d="M70.5718 25.9297L78.0718 24.7285V30.6172L77.8374 38.791C78.5601 38.6738 79.2437 38.5469 79.8882 38.4102L81.7925 37.9414C82.4175 37.7852 83.0327 37.6094 83.6382 37.4141L85.5718 36.7402C86.4897 33.8301 86.9487 30.2754 86.9487 26.0762C86.9487 24.5137 86.8706 23.5273 86.7144 23.1172C84.1362 22.2969 79.4292 21.7891 72.5933 21.5938C70.8354 21.5547 69.2046 21.5059 67.7007 21.4473L68.814 14.5332C78.0327 14.8848 84.7808 15.5684 89.0581 16.584C89.7417 16.7598 90.5327 17.2969 91.4312 18.1953C93.1304 19.8945 94.0483 21.2617 94.1851 22.2969C94.3413 23.3125 94.4194 24.7578 94.4194 26.6328C94.4194 28.4883 94.1753 30.7148 93.687 33.3125C93.1987 35.9102 92.4077 38.4883 91.314 41.0469C90.8843 42.0625 89.9077 42.6875 88.3843 42.9219L78.0132 44.7676L77.6616 52.9414L71.0991 53.5859L70.5718 25.9297ZM101.128 30.2656L101.07 24.8457L107.31 24.2012L108.335 28.6543L112.818 23.7324H116.304L117.769 30.5879C117.769 30.5879 116.236 30.9199 113.169 31.584C111.705 31.8965 110.191 32.2383 108.628 32.6094L108.218 52.6484L101.597 53.2344L101.128 30.2656ZM129.371 8.9082C129.585 9.66992 129.693 10.5293 129.693 11.4863C129.693 12.4238 129.664 13.2246 129.605 13.8887C129.546 14.5332 129.478 15.1387 129.4 15.7051C129.205 16.9355 128.98 17.7754 128.726 18.2246L121.988 17.9316C122.32 16.2129 122.486 13.4688 122.486 9.69922L129.371 8.9082ZM129.136 23.6738C129.234 25.6855 129.283 27.375 129.283 28.7422C129.283 30.1094 129.253 31.7109 129.195 33.5469L128.521 53L122.281 53.5273L121.695 24.6113L129.136 23.6738ZM137.222 24.9922L143.462 24.2012L144.488 28.6543L149.644 24.2012H155.445C156.128 24.2012 156.841 24.582 157.583 25.3438C158.716 26.457 159.351 27.5312 159.488 28.5664L164.527 24.2012H171.587C171.841 24.2012 172.31 24.4648 172.994 24.9922C173.697 25.5195 174.175 25.959 174.429 26.3105C174.703 26.6621 174.839 27.0625 174.839 27.5117L173.814 53.0586L167.281 53.5859L167.164 31.1152C166.929 31.0371 166.49 30.998 165.845 30.998C164.322 30.998 162.984 31.2129 161.832 31.6426L159.781 32.4043L158.873 53.0586L152.574 53.5859L152.457 31.1152C152.222 31.0371 151.783 30.998 151.138 30.998C149.498 30.998 148.101 31.2129 146.949 31.6426L144.957 32.3457L144.166 52.8242L137.75 53.2344L137.222 24.9922ZM182.076 33.4883C182.076 30.8711 182.349 29.3574 182.896 28.9473C183.443 28.5371 184.058 28.127 184.742 27.7168C185.425 27.2871 186.177 26.8672 186.998 26.457C187.818 26.0469 188.667 25.6562 189.546 25.2852C190.445 24.9141 191.324 24.582 192.183 24.2891C194.019 23.6641 195.386 23.3516 196.285 23.3516C197.203 23.3516 197.945 23.4004 198.511 23.498C199.078 23.5762 199.595 23.7129 200.064 23.9082C201.138 24.3574 201.744 25.0117 201.88 25.8711C202.525 29.9531 202.847 34.8164 202.847 40.4609V42.1895L188.814 42.3652V46.1738C190.337 46.5449 192.154 46.8867 194.263 47.1992L199.302 48.0195C200.591 48.2148 201.91 48.4395 203.257 48.6934L201.529 55.1094C196.158 54.2695 190.455 52.9121 184.419 51.0371C183.033 50.5879 182.32 49.7773 182.281 48.6055L182.076 33.4883ZM196.255 35.8906C196.255 34.0547 196.07 32.1211 195.699 30.0898C194.917 30.0898 194.292 30.1289 193.824 30.207C193.355 30.2852 192.886 30.3926 192.417 30.5293C191.949 30.666 191.47 30.8223 190.982 30.998C189.83 31.4082 189.068 31.7598 188.697 32.0527V37.3262L196.255 36.5059V35.8906ZM211.548 25.9297L219.048 24.7285V30.6172L218.814 38.791C219.537 38.6738 220.22 38.5469 220.865 38.4102L222.769 37.9414C223.394 37.7852 224.009 37.6094 224.615 37.4141L226.548 36.7402C227.466 33.8301 227.925 30.2754 227.925 26.0762C227.925 24.5137 227.847 23.5273 227.691 23.1172C225.113 22.2969 220.406 21.7891 213.57 21.5938C211.812 21.5547 210.181 21.5059 208.677 21.4473L209.791 14.5332C219.009 14.8848 225.757 15.5684 230.035 16.584C230.718 16.7598 231.509 17.2969 232.408 18.1953C234.107 19.8945 235.025 21.2617 235.162 22.2969C235.318 23.3125 235.396 24.7578 235.396 26.6328C235.396 28.4883 235.152 30.7148 234.664 33.3125C234.175 35.9102 233.384 38.4883 232.291 41.0469C231.861 42.0625 230.884 42.6875 229.361 42.9219L218.99 44.7676L218.638 52.9414L212.076 53.5859L211.548 25.9297ZM249.781 8.9082C249.996 9.66992 250.103 10.5293 250.103 11.4863C250.103 12.4238 250.074 13.2246 250.015 13.8887C249.957 14.5332 249.888 15.1387 249.81 15.7051C249.615 16.9355 249.39 17.7754 249.136 18.2246L242.398 17.9316C242.73 16.2129 242.896 13.4688 242.896 9.69922L249.781 8.9082ZM249.546 23.6738C249.644 25.6855 249.693 27.375 249.693 28.7422C249.693 30.1094 249.664 31.7109 249.605 33.5469L248.931 53L242.691 53.5273L242.105 24.6113L249.546 23.6738ZM259.478 51.623C258.404 51.2715 257.779 50.4609 257.603 49.1914C257.212 46.4961 257.017 44.0352 257.017 41.8086C257.017 39.5625 257.037 37.9023 257.076 36.8281C257.134 35.7344 257.212 34.6797 257.31 33.6641C257.662 29.4258 258.14 26.9453 258.746 26.2227C259.058 25.832 259.566 25.5391 260.269 25.3438C260.992 25.1289 261.949 24.9141 263.14 24.6992C264.351 24.4648 265.621 24.25 266.949 24.0547C268.296 23.8398 269.615 23.6445 270.904 23.4688C272.212 23.293 273.326 23.1367 274.244 23L275.269 29.5918L273.013 29.8262C268.833 30.2559 266.167 30.6172 265.015 30.9102C264.703 32.1211 264.488 33.8203 264.371 36.0078C264.253 38.1953 264.195 39.7969 264.195 40.8125C264.195 43.332 264.292 45.2168 264.488 46.4668L275.679 48.5469L273.951 54.8457C272.349 54.5918 270.845 54.3184 269.439 54.0254L265.894 53.293C262.691 52.5898 260.552 52.0332 259.478 51.623ZM280.865 11.1934L287.955 9.8457L288.072 29.2109L287.896 35.0996L288.892 35.3047L298.794 22.5312L303.98 26.5449C303.277 27.5996 302.505 28.5859 301.666 29.5039L299.175 32.2285C298.316 33.1074 297.476 33.918 296.656 34.6602L294.195 36.7988C294.449 37.0332 294.849 37.4336 295.396 38C300.435 43.4297 303.814 47.707 305.533 50.832L299.761 54.9336L289.683 39.7285L287.662 40.6953L287.164 52.7656L280.982 53.2344L280.865 11.1934ZM308.433 48.3125C308.433 48.3125 310.523 48.1855 314.703 47.9316C316.636 47.8145 318.58 47.6191 320.533 47.3457L320.738 43.6543L310.455 39.6113C309.849 39.377 309.39 38.9277 309.078 38.2637C308.765 37.5801 308.609 37.043 308.609 36.6523C308.609 36.2617 308.609 36.0176 308.609 35.9199C308.628 35.8027 308.658 35.5391 308.697 35.1289L309.341 29.5918C309.537 28.0293 310.328 26.9453 311.714 26.3398C312.574 25.9492 313.658 25.5977 314.966 25.2852C317.642 24.6602 319.517 24.2402 320.591 24.0254L323.433 23.4102C324.253 23.2539 324.986 23.1172 325.63 23L326.978 29.709L315.552 31.4082L315.083 34.2207L325.894 39.2598C327.203 39.8652 327.759 41.0273 327.564 42.7461L326.773 49.8066C326.597 51.3105 325.376 52.3164 323.111 52.8242C320.689 53.4883 318.003 53.9766 315.054 54.2891C312.125 54.6211 310.191 54.8066 309.253 54.8457L308.433 48.3125Z" fill="#222222"/>
</svg>
